# xmcd
# Copyright (C) 1995-1998 Ti Kan
#
# Track frame offsets:
#       150
#       12774
#       24258
#       42225
#       58523
#       70115
#       85623
#       97094
#       110308
#       122950
#       135890
#       150664
#       165986
#       178906
#       199097
#
# Disc length: 3116 seconds
#
# Revision: 0
# Processed by: cddbd v1.5.2PL0 Copyright (c) Steve Scherf et al.
# Submitted via: CD-Transfer v1.0
#
DISCID=b50c2a0f
DTITLE=Black Lips - Black Lips
DYEAR=09
DGENRE=
TTITLE0=Take My Heart
TTITLE1=Drugs
TTITLE2=Starting Over
TTITLE3=Let It Grow
TTITLE4=Trapped In A Basement
TTITLE5=Short Fuse
TTITLE6=I'll Be With You
TTITLE7=Big Black Baby Jesus Of Today
TTITLE8=Again And Again
TTITLE9=Old Man
TTITLE10=Drop I Hold, The
TTITLE11=Body Combat
TTITLE12=Elijah
TTITLE13=I Saw God
TTITLE14=Meltdown
EXTD=
EXTT0=
EXTT1=
EXTT2=
EXTT3=
EXTT4=
EXTT5=
EXTT6=
EXTT7=
EXTT8=
EXTT9=
EXTT10=
EXTT11=
EXTT12=
EXTT13=
EXTT14=
PLAYORDER=
